<svg xmlns="http://www.w3.org/2000/svg" width="163.388" height="30" viewBox="0 0 163.388 30"><defs><style>.a{fill:#005cc1;}</style></defs><path d="M17.653,6.825c-6.783,0-7.963.76-9.817,4.719h9.817V17.95H7.836c1.938,4.3,3.2,4.719,9.817,4.719v6.825h-4.17C5.561,29.494,0,22.921,0,14.747S5.561,0,13.483,0h4.17Z"/><path d="M27.9,20.73c0,1.77.885,2.865,2.317,2.865s2.318-1.095,2.318-2.865V9.018h6.487V20.73c0,5.309-3.075,9.27-8.805,9.27s-8.806-3.961-8.806-9.27V9.018H27.9Z"/><path d="M48.181,12.43h.084c1.012-2.908,2.951-3.412,5.9-3.412v6.151c-4.677.168-5.1,1.178-5.1,4.719v9.606H42.325V9.018h5.856Z"/><path d="M86.712,0V18.413c0,3.159,1.559,5.436,4.761,5.436a4.484,4.484,0,0,0,4.634-4.594,4.482,4.482,0,0,0-4.634-4.592,5.491,5.491,0,0,0-2.823.59V9.018a8.924,8.924,0,0,1,3.287-.506c5.35,0,10.911,3.665,10.911,10.7C102.848,25.365,98.131,30,91.6,30c-5.983,0-11.629-3.371-11.629-9.944V0Z"/><path d="M121.276,29.494V20.056c0-3.623-1.686-5.393-4.762-5.393a4.558,4.558,0,0,0-4.635,4.467,4.45,4.45,0,0,0,4.467,4.719,9.1,9.1,0,0,0,3.244-.59V28.82A7.551,7.551,0,0,1,115,30a10.3,10.3,0,0,1-9.86-10.7c0-6.151,4.719-10.786,11.249-10.786,6.363,0,11.631,3.454,11.631,9.944V29.494Z"/><path d="M142.65,8.848V15h-4.8v5.479c0,2.359.842,2.781,3.454,2.865.464,0,.97-.043,1.433-.084v6.235h-3.791c-5.141,0-7.586-3.455-7.586-7.331V3.961h6.533V8.848Z"/><path d="M145.271,0h6.741V9.606a7.893,7.893,0,0,1,3.918-1.094c5.141,0,7.458,4.044,7.458,7.921V29.494h-6.741V17.57c0-1.77-1.012-2.571-2.317-2.571s-2.318.8-2.318,2.571V29.494h-6.741Z"/><path class="a" d="M75.615,19.962c0,5.264-4.568,9.532-10.2,9.532s-10.2-4.268-10.2-9.532,10.2-16,10.2-16S75.615,14.7,75.615,19.962Z"/></svg>