<svg xmlns="http://www.w3.org/2000/svg" xmlns:xlink="http://www.w3.org/1999/xlink" viewBox="0 0 135.71 50"><defs><style>.cls-1{fill:#404544;}.cls-2{fill:#fff;}.cls-3{fill:url(#新建渐变色板);}</style><linearGradient id="新建渐变色板" x1="16.07" y1="46.69" x2="16.07" y2="-5.89" gradientUnits="userSpaceOnUse"><stop offset="0" stop-color="#e62323"/><stop offset="0.05" stop-color="#e62323"/><stop offset="0.07" stop-color="#e62824"/><stop offset="0.19" stop-color="#e9462b"/><stop offset="0.31" stop-color="#eb5c30"/><stop offset="0.42" stop-color="#ec6933"/><stop offset="0.53" stop-color="#ec6d34"/><stop offset="1" stop-color="#ec6d34"/></linearGradient></defs><title>资源 1</title><g id="图层_2" data-name="图层 2"><g id="图层_1-2" data-name="图层 1"><path class="cls-1" d="M50.63,22.35a7.27,7.27,0,0,0-3.48.94,0,0,0,0,1-.06,0V18.44a2.18,2.18,0,0,0-1.86-2.19,2.12,2.12,0,0,0-2.38,2.1v21.8a2.12,2.12,0,0,0,4.24,0V29.58c0-1.72,1.52-3,3.54-3,2.38,0,2.85,1.18,2.85,3.09V40.16a2.12,2.12,0,0,0,4.24,0V29.65c0-4.57-2.65-7.3-7.09-7.3"/><path class="cls-1" d="M64.66,42.28h0a2.12,2.12,0,0,0,2.12-2.12V24.74a2.12,2.12,0,0,0-4.24,0V40.16a2.12,2.12,0,0,0,2.12,2.12"/><path class="cls-1" d="M64.93,16h-.58a2.12,2.12,0,0,0-2.12,2.12V19a2.41,2.41,0,1,0,4.82,0v-.84A2.12,2.12,0,0,0,64.93,16"/><path class="cls-1" d="M98.65,22.35a7.27,7.27,0,0,0-3.54,1V18.44a2.18,2.18,0,0,0-2.05-2.21,2.12,2.12,0,0,0-2.18,2.12v21.8a2.12,2.12,0,0,0,4.24,0V29.58c0-1.72,1.52-3,3.54-3,2.38,0,2.85,1.18,2.85,3.09V40.16a2.12,2.12,0,0,0,4.24,0V29.65c0-4.57-2.65-7.3-7.09-7.3"/><path class="cls-1" d="M86.24,29.23c0-.09,0-.18,0-.28v7c0-.09,0-.18,0-.28Z"/><path class="cls-1" d="M82,22.83h0a6.89,6.89,0,0,0-2.64-.53h-1a6.88,6.88,0,0,0-6.87,6.52c0,.08,0,.16,0,.25v0s0,.07,0,.1v0c0,.14,0,.29,0,.43v5.64c0,.3,0,.58,0,.87,0-.14,0-.28,0-.43v0c0,.15,0,.29,0,.43h0a6.8,6.8,0,0,0,.6,2.41h0a6.36,6.36,0,0,0,2.94,3.15,6.82,6.82,0,0,1-1.72-1.34,6.82,6.82,0,0,0,1.72,1.34h0l.27.13.5.21-.5-.21a6.8,6.8,0,0,0,2.46.66h0a10,10,0,0,0,1.12.07,6.39,6.39,0,0,0,.85-.06h0a6.89,6.89,0,0,0,2.27-.5v.82c0,2.42-1.15,2.89-3.13,2.89-1.15,0-2.58-.35-2.9-2h0a.84.84,0,0,0-.82-.68H72.5a.84.84,0,0,0-.83.94c.45,3.64,3.26,6,7.15,6,4.77,0,7.4-2.53,7.4-7.13V29A6.93,6.93,0,0,0,82,22.83Zm0,12.46a2.8,2.8,0,0,1-3.13,3.09c-2.15,0-3.19-1-3.19-3.09V29.65c0-2,1.1-3.09,3.19-3.09s3.13,1,3.13,3.09Z"/><path class="cls-1" d="M112.46,20.24h4.44a9.9,9.9,0,0,1,3.74.85,2,2,0,1,0,1.63-3.67,13.91,13.91,0,0,0-5.28-1.2h-4.52a2,2,0,0,0,0,4Z"/><path class="cls-1" d="M116.59,22.85h-4.34l-.19,0h0l-.16,0h0l-.15.06,0,0-.14.07,0,0-.13.08,0,0-.12.09,0,0-.11.1,0,0-.1.11,0,0-.08.11,0,0-.07.12,0,.06-.06.12,0,.07,0,.11,0,.08,0,.11v.09s0,.07,0,.11,0,.06,0,.09,0,.07,0,.11l-.06,10.53a6.88,6.88,0,0,0,6.87,6.87h4.19a2,2,0,0,0,0-4h-4.19a2.85,2.85,0,0,1-2.85-2.84l0-8.52h2.13a2.85,2.85,0,0,1,2.85,2.85v2.36a2,2,0,1,0,4,0V29.71A6.88,6.88,0,0,0,116.59,22.85Z"/><path class="cls-1" d="M128.85,42.24h-1.34a2,2,0,0,1,0-4h1.34a2.85,2.85,0,0,0,2.85-2.85V18a2,2,0,1,1,4,0V35.37A6.88,6.88,0,0,1,128.85,42.24Z"/><path class="cls-1" d="M127.51,35.3a2,2,0,0,1-2-2V24.86a2,2,0,0,1,4,0v8.43A2,2,0,0,1,127.51,35.3Z"/><path class="cls-2" d="M21.94,15.74a2.14,2.14,0,0,0,2.14-2.14V9.86a2.14,2.14,0,1,0-4.28,0V13.6a2.14,2.14,0,0,0,2.14,2.14"/><path class="cls-2" d="M21.94,15.74a2.14,2.14,0,0,0,2.14-2.14V9.86a2.14,2.14,0,1,0-4.28,0V13.6a2.14,2.14,0,0,0,2.14,2.14"/><path class="cls-2" d="M29.2,8.86a2.93,2.93,0,1,0-2.93-2.93A2.93,2.93,0,0,0,29.2,8.86"/><path class="cls-2" d="M29.2,8.86a2.93,2.93,0,1,0-2.93-2.93A2.93,2.93,0,0,0,29.2,8.86"/><path class="cls-2" d="M2.46,13A2.42,2.42,0,1,0,0,10.6,2.42,2.42,0,0,0,2.46,13"/><path class="cls-2" d="M2.46,13A2.42,2.42,0,1,0,0,10.6,2.42,2.42,0,0,0,2.46,13"/><path class="cls-2" d="M13.77,6.21a3.1,3.1,0,1,0-3.1-3.1,3.1,3.1,0,0,0,3.1,3.1"/><path class="cls-2" d="M13.77,6.21a3.1,3.1,0,1,0-3.1-3.1,3.1,3.1,0,0,0,3.1,3.1"/><path class="cls-2" d="M32.14,12.81h0a2.93,2.93,0,0,0-5.84-.25h0a5,5,0,0,1-.9,3l-.17.29A3.77,3.77,0,0,1,22,17.57a3.72,3.72,0,0,1-3.73-3.76h0c0-.11,0-.23,0-.35a4.7,4.7,0,0,0-9.08-1.7V5.93a1.53,1.53,0,0,0-3.06,0V16a16,16,0,0,0-1.25,1.09A2.52,2.52,0,0,0,0,17.73H0V29H0A16.06,16.06,0,0,0,7.72,42.36V22.16a3.4,3.4,0,0,1,.64-2.26,2.24,2.24,0,0,1,1.8-.75,2.31,2.31,0,0,1,1.84.76,3.34,3.34,0,0,1,.66,2.25V29.5a10.57,10.57,0,0,1,1.84-1.72,6.64,6.64,0,0,1,2-1,8.32,8.32,0,0,1,2.34-.32,6.86,6.86,0,0,1,3.34.8,6.19,6.19,0,0,1,3,4.3,15.62,15.62,0,0,1,.18,2.53v7.62a16,16,0,0,0,6.8-13.12c0-.19,0-.38,0-.57h0Z"/><path class="cls-2" d="M32.14,12.81h0a2.93,2.93,0,0,0-5.84-.25h0a5,5,0,0,1-.9,3l-.17.29A3.77,3.77,0,0,1,22,17.57a3.72,3.72,0,0,1-3.73-3.76h0c0-.11,0-.23,0-.35a4.7,4.7,0,0,0-9.08-1.7V5.93a1.53,1.53,0,0,0-3.06,0V16a16,16,0,0,0-1.25,1.09A2.52,2.52,0,0,0,0,17.73H0V29H0A16.06,16.06,0,0,0,7.72,42.36V22.16a3.4,3.4,0,0,1,.64-2.26,2.24,2.24,0,0,1,1.8-.75,2.31,2.31,0,0,1,1.84.76,3.34,3.34,0,0,1,.66,2.25V29.5a10.57,10.57,0,0,1,1.84-1.72,6.64,6.64,0,0,1,2-1,8.32,8.32,0,0,1,2.34-.32,6.86,6.86,0,0,1,3.34.8,6.19,6.19,0,0,1,3,4.3,15.62,15.62,0,0,1,.18,2.53v7.62a16,16,0,0,0,6.8-13.12c0-.19,0-.38,0-.57h0Z"/><path class="cls-2" d="M20.41,35.26a7.65,7.65,0,0,0-.71-3.65A2.79,2.79,0,0,0,17,30.33a4,4,0,0,0-2.38.75,4.53,4.53,0,0,0-1.59,2.06,13.17,13.17,0,0,0-.4,3.93v6.54a5.37,5.37,0,0,1,0,.72,16.06,16.06,0,0,0,7.82-.23c0-.16,0-.32,0-.49Z"/><path class="cls-2" d="M20.41,35.26a7.65,7.65,0,0,0-.71-3.65A2.79,2.79,0,0,0,17,30.33a4,4,0,0,0-2.38.75,4.53,4.53,0,0,0-1.59,2.06,13.17,13.17,0,0,0-.4,3.93v6.54a5.37,5.37,0,0,1,0,.72,16.06,16.06,0,0,0,7.82-.23c0-.16,0-.32,0-.49Z"/><path class="cls-3" d="M21.94,15.74a2.14,2.14,0,0,0,2.14-2.14V9.86a2.14,2.14,0,1,0-4.28,0V13.6a2.14,2.14,0,0,0,2.14,2.14"/><path class="cls-3" d="M21.94,15.74a2.14,2.14,0,0,0,2.14-2.14V9.86a2.14,2.14,0,1,0-4.28,0V13.6a2.14,2.14,0,0,0,2.14,2.14"/><path class="cls-3" d="M21.94,15.74a2.14,2.14,0,0,0,2.14-2.14V9.86a2.14,2.14,0,1,0-4.28,0V13.6a2.14,2.14,0,0,0,2.14,2.14"/><path class="cls-3" d="M29.2,8.86a2.93,2.93,0,1,0-2.93-2.93A2.93,2.93,0,0,0,29.2,8.86"/><path class="cls-3" d="M29.2,8.86a2.93,2.93,0,1,0-2.93-2.93A2.93,2.93,0,0,0,29.2,8.86"/><path class="cls-3" d="M29.2,8.86a2.93,2.93,0,1,0-2.93-2.93A2.93,2.93,0,0,0,29.2,8.86"/><path class="cls-3" d="M2.46,13A2.42,2.42,0,1,0,0,10.6,2.42,2.42,0,0,0,2.46,13"/><path class="cls-3" d="M2.46,13A2.42,2.42,0,1,0,0,10.6,2.42,2.42,0,0,0,2.46,13"/><path class="cls-3" d="M2.46,13A2.42,2.42,0,1,0,0,10.6,2.42,2.42,0,0,0,2.46,13"/><path class="cls-3" d="M13.77,6.21a3.1,3.1,0,1,0-3.1-3.1,3.1,3.1,0,0,0,3.1,3.1"/><path class="cls-3" d="M13.77,6.21a3.1,3.1,0,1,0-3.1-3.1,3.1,3.1,0,0,0,3.1,3.1"/><path class="cls-3" d="M13.77,6.21a3.1,3.1,0,1,0-3.1-3.1,3.1,3.1,0,0,0,3.1,3.1"/><path class="cls-3" d="M32.14,12.81h0a2.93,2.93,0,0,0-5.84-.25h0a5,5,0,0,1-.9,3l-.17.29A3.77,3.77,0,0,1,22,17.57a3.72,3.72,0,0,1-3.73-3.76h0c0-.11,0-.23,0-.35a4.7,4.7,0,0,0-9.08-1.7V5.93a1.53,1.53,0,0,0-3.06,0V16a16,16,0,0,0-1.25,1.09A2.52,2.52,0,0,0,0,17.73H0V29H0A16.06,16.06,0,0,0,7.72,42.36V22.16a3.4,3.4,0,0,1,.64-2.26,2.24,2.24,0,0,1,1.8-.75,2.31,2.31,0,0,1,1.84.76,3.34,3.34,0,0,1,.66,2.25V29.5a10.57,10.57,0,0,1,1.84-1.72,6.64,6.64,0,0,1,2-1,8.32,8.32,0,0,1,2.34-.32,6.86,6.86,0,0,1,3.34.8,6.19,6.19,0,0,1,3,4.3,15.62,15.62,0,0,1,.18,2.53v7.62a16,16,0,0,0,6.8-13.12c0-.19,0-.38,0-.57h0Z"/><path class="cls-3" d="M32.14,12.81h0a2.93,2.93,0,0,0-5.84-.25h0a5,5,0,0,1-.9,3l-.17.29A3.77,3.77,0,0,1,22,17.57a3.72,3.72,0,0,1-3.73-3.76h0c0-.11,0-.23,0-.35a4.7,4.7,0,0,0-9.08-1.7V5.93a1.53,1.53,0,0,0-3.06,0V16a16,16,0,0,0-1.25,1.09A2.52,2.52,0,0,0,0,17.73H0V29H0A16.06,16.06,0,0,0,7.72,42.36V22.16a3.4,3.4,0,0,1,.64-2.26,2.24,2.24,0,0,1,1.8-.75,2.31,2.31,0,0,1,1.84.76,3.34,3.34,0,0,1,.66,2.25V29.5a10.57,10.57,0,0,1,1.84-1.72,6.64,6.64,0,0,1,2-1,8.32,8.32,0,0,1,2.34-.32,6.86,6.86,0,0,1,3.34.8,6.19,6.19,0,0,1,3,4.3,15.62,15.62,0,0,1,.18,2.53v7.62a16,16,0,0,0,6.8-13.12c0-.19,0-.38,0-.57h0Z"/><path class="cls-3" d="M32.14,12.81h0a2.93,2.93,0,0,0-5.84-.25h0a5,5,0,0,1-.9,3l-.17.29A3.77,3.77,0,0,1,22,17.57a3.72,3.72,0,0,1-3.73-3.76h0c0-.11,0-.23,0-.35a4.7,4.7,0,0,0-9.08-1.7V5.93a1.53,1.53,0,0,0-3.06,0V16a16,16,0,0,0-1.25,1.09A2.52,2.52,0,0,0,0,17.73H0V29H0A16.06,16.06,0,0,0,7.72,42.36V22.16a3.4,3.4,0,0,1,.64-2.26,2.24,2.24,0,0,1,1.8-.75,2.31,2.31,0,0,1,1.84.76,3.34,3.34,0,0,1,.66,2.25V29.5a10.57,10.57,0,0,1,1.84-1.72,6.64,6.64,0,0,1,2-1,8.32,8.32,0,0,1,2.34-.32,6.86,6.86,0,0,1,3.34.8,6.19,6.19,0,0,1,3,4.3,15.62,15.62,0,0,1,.18,2.53v7.62a16,16,0,0,0,6.8-13.12c0-.19,0-.38,0-.57h0Z"/><path class="cls-3" d="M20.41,35.26a7.65,7.65,0,0,0-.71-3.65A2.79,2.79,0,0,0,17,30.33a4,4,0,0,0-2.38.75,4.53,4.53,0,0,0-1.59,2.06,13.17,13.17,0,0,0-.4,3.93v6.54a5.37,5.37,0,0,1,0,.72,16.06,16.06,0,0,0,7.82-.23c0-.16,0-.32,0-.49Z"/><path class="cls-3" d="M20.41,35.26a7.65,7.65,0,0,0-.71-3.65A2.79,2.79,0,0,0,17,30.33a4,4,0,0,0-2.38.75,4.53,4.53,0,0,0-1.59,2.06,13.17,13.17,0,0,0-.4,3.93v6.54a5.37,5.37,0,0,1,0,.72,16.06,16.06,0,0,0,7.82-.23c0-.16,0-.32,0-.49Z"/><path class="cls-3" d="M20.41,35.26a7.65,7.65,0,0,0-.71-3.65A2.79,2.79,0,0,0,17,30.33a4,4,0,0,0-2.38.75,4.53,4.53,0,0,0-1.59,2.06,13.17,13.17,0,0,0-.4,3.93v6.54a5.37,5.37,0,0,1,0,.72,16.06,16.06,0,0,0,7.82-.23c0-.16,0-.32,0-.49Z"/></g></g></svg>