<svg xmlns="http://www.w3.org/2000/svg" width="252" height="38" viewBox="0 0 252 38">
  <metadata><?xpacket begin="﻿" id="W5M0MpCehiHzreSzNTczkc9d"?>
<x:xmpmeta xmlns:x="adobe:ns:meta/" x:xmptk="Adobe XMP Core 5.6-c138 79.159824, 2016/09/14-01:09:01        ">
   <rdf:RDF xmlns:rdf="http://www.w3.org/1999/02/22-rdf-syntax-ns#">
      <rdf:Description rdf:about=""/>
   </rdf:RDF>
</x:xmpmeta>
                                                                                                    
                                                                                                    
                                                                                                    
                                                                                                    
                                                                                                    
                                                                                                    
                                                                                                    
                                                                                                    
                                                                                                    
                                                                                                    
                                                                                                    
                                                                                                    
                                                                                                    
                                                                                                    
                                                                                                    
                                                                                                    
                                                                                                    
                                                                                                    
                                                                                                    
                                                                                                    
                           
<?xpacket end="w"?></metadata>
<defs>
    <style>
      .cls-1 {
        fill: #0056a2;
        fill-rule: evenodd;
      }
    </style>
  </defs>
  <path id="enlarged_logo" data-name="enlarged logo" class="cls-1" d="M78.418,31v7.875H64.16V69H54.343V38.873H40V31H78.418Zm128.187,0v7.875H192.347V69H182.53V38.873H168.192V31h38.413ZM292,69l-14.6-19.6L291.155,31H280.3l-9.212,12.451L261.881,31H251.03l13.751,18.4L250.184,69h11.381L271.092,57,280.619,69H292ZM109.575,31V57.446a3.246,3.246,0,0,1-3.219,3.16H92.728V31H83.9V69h22.344c6.716-.013,12.156-5.178,12.156-11.55V31h-8.825ZM245.452,69V59.684H225.617a3.607,3.607,0,0,1-3.7-3.507V53.215h21.208V45.335h-22.18V38.873H246.1V31h-34V57.447c0,6.372,5.44,11.537,12.156,11.55h21.2ZM153.813,31V58.624L133.123,31h-6.494V69h8.776V48.758L150.534,69h0.009c6.716-.013,12.156-5.178,12.156-11.55V31h-8.886Z" transform="translate(-40 -31)"/>
</svg>
