<svg xmlns="http://www.w3.org/2000/svg" viewBox="0 0 773.5 367.76"><defs><style>.cls-1{fill:#00a3df;}.cls-2{fill:#00b8a0;}.cls-3{fill:#7ac25c;}.cls-4{fill:#007fc4;}.cls-5{fill:#b1d349;}.cls-6{fill:#4c4c4e;}.cls-7{fill:#221e1f;}</style></defs><title>资源 2</title><g id="图层_2" data-name="图层 2"><g id="图层_1-2" data-name="图层 1"><path class="cls-1" d="M351.13,215.47a55.27,55.27,0,0,0,6.6-71.28l-72,71.28Z"/><path class="cls-1" d="M269.59,232.4l-35,34.27v59.57l10.48,11,.17-43L272,267.88h57.68A30,30,0,0,0,359.3,232.4Z"/><path class="cls-2" d="M12.32,222.39a30.09,30.09,0,0,0,25.9,45.51H92.4l30.19,30.47,0,38.48,10.62-11.1V244.85l-22.41-22.45Z"/><path class="cls-1" d="M213.09,0a30,30,0,0,0-21.22,8.74V32.88a22.33,22.33,0,0,1,0,41.43v54.95l16,15.93h.06v70.25L231,191.68a17.36,17.36,0,0,1,12.24-22V29.93A30.15,30.15,0,0,0,213.09,0Z"/><path class="cls-3" d="M126.34,143.2a22.33,22.33,0,1,1-14.67-42.15V29.41A30.08,30.08,0,0,0,63.52,45.25v70.28l96.27,97.17v-36Z"/><path class="cls-1" d="M22.81,173.4a17.33,17.33,0,0,1,29.49,0h46L47.46,122.1V70.73A55.2,55.2,0,0,0,16.4,136.58,55.15,55.15,0,0,0,0,173.4Z"/><path class="cls-4" d="M336.65,82.28a55,55,0,0,0-17.1-11.59v16.5a22.31,22.31,0,0,1,0,41.82v37.73L351,135.62A55.28,55.28,0,0,0,336.65,82.28Z"/><path class="cls-4" d="M191.87,151.65l-16-15.93h0V74.43a22.26,22.26,0,0,1,0-41.84V10.7a30.15,30.15,0,0,0-53.19,19.4V49.38c0-.17-.06-.34-.08-.51v51.53A22.25,22.25,0,0,1,138.2,132l37.67,37.83-.06.06h0V359.22c0,.15,0,.29,0,.44a8.07,8.07,0,0,0,16.14,0c0-.17,0-.33-.05-.49Z"/><path class="cls-1" d="M159.68,236.26l-45.85-46.2h-61a17.46,17.46,0,0,1-32,0H.7a55.16,55.16,0,0,0,6.93,16.08h102L144,240.45v91.36l-20,20v0a9.29,9.29,0,1,0,13.55,12.69l22.07-21.81Z"/><path class="cls-5" d="M304.1,87.63V52.35a30.28,30.28,0,0,0-49.64-22.65V170.95a17.43,17.43,0,0,1-11.77,32.77L208,239.23,208,342.71,230,364.52a9.29,9.29,0,1,0,13.55-12.69v0l-19.94-20v-69l80.44-79.63V129.28a22.38,22.38,0,0,1,0-41.65Z"/><path class="cls-6" d="M392.27,348.39l-6.66-27.21h5.29l2.58,12.36c.69,3.31,1.33,6.78,1.78,9.49h.08c.44-2.87,1.21-6.1,2-9.53l2.95-12.31h5.21l2.71,12.52c.64,3.23,1.25,6.26,1.66,9.21h.08c.48-3,1.13-6.1,1.86-9.45l2.83-12.27h5l-7.35,27.21H407l-2.83-12.8c-.69-3.11-1.17-5.69-1.53-8.64h-.08a82,82,0,0,1-1.78,8.64l-3.15,12.8Z"/><path class="cls-6" d="M424.73,340c.12,3.55,2.87,5.09,6.06,5.09a15.85,15.85,0,0,0,5.45-.89l.73,3.39a17.65,17.65,0,0,1-6.86,1.25c-6.38,0-10.13-3.92-10.13-9.93,0-5.45,3.31-10.58,9.61-10.58s8.48,5.25,8.48,9.57a12.33,12.33,0,0,1-.16,2.1Zm8.64-3.47c0-1.82-.77-4.8-4.08-4.8-3.07,0-4.36,2.79-4.56,4.8Z"/><path class="cls-6" d="M457.47,336.32H447.22v8h11.47v4.08H442.25V321.18h15.83v4.08H447.22v7h10.26Z"/><path class="cls-6" d="M462.84,334.59c0-2.26-.08-4.16-.16-5.85H467l.24,2.95h.12a7.22,7.22,0,0,1,6.3-3.39c3.43,0,7,2.22,7,8.44v11.67h-5v-11.1c0-2.83-1-5-3.75-5a4.17,4.17,0,0,0-3.88,2.91,4.61,4.61,0,0,0-.24,1.57v11.59h-5Z"/><path class="cls-6" d="M494.41,343a13.61,13.61,0,0,0,6.58,1.74c3.15,0,4.93-1.49,4.93-3.71,0-2.06-1.37-3.27-4.8-4.52-4.52-1.62-7.39-4-7.39-7.91,0-4.48,3.72-7.83,9.65-7.83a14.18,14.18,0,0,1,6.5,1.37l-1.17,4a11.87,11.87,0,0,0-5.45-1.29c-3.15,0-4.48,1.66-4.48,3.27,0,2.1,1.58,3.07,5.21,4.48,4.72,1.78,7,4.16,7,8.08,0,4.4-3.31,8.2-10.3,8.2a15.67,15.67,0,0,1-7.39-1.74Z"/><path class="cls-6" d="M519,340c.12,3.55,2.87,5.09,6.06,5.09a15.85,15.85,0,0,0,5.45-.89l.73,3.39a17.65,17.65,0,0,1-6.86,1.25c-6.38,0-10.13-3.92-10.13-9.93,0-5.45,3.31-10.58,9.61-10.58s8.48,5.25,8.48,9.57a12.32,12.32,0,0,1-.16,2.1Zm8.64-3.47c0-1.82-.77-4.8-4.08-4.8-3.07,0-4.36,2.79-4.56,4.8Z"/><path class="cls-6" d="M536.31,334.59c0-2.26-.08-4.16-.16-5.85h4.24l.24,2.91h.12a6.7,6.7,0,0,1,6.06-3.35,5.67,5.67,0,0,1,5.45,3.63h.08a7.77,7.77,0,0,1,2.38-2.46,6.83,6.83,0,0,1,4-1.17c3.23,0,6.54,2.22,6.54,8.52v11.59h-4.84V337.53c0-3.27-1.13-5.21-3.51-5.21a3.79,3.79,0,0,0-3.47,2.62,5.28,5.28,0,0,0-.24,1.66v11.79h-4.84V337c0-2.75-1.09-4.68-3.39-4.68a4,4,0,0,0-3.59,2.79,5.65,5.65,0,0,0-.24,1.66v11.63h-4.85Z"/><path class="cls-6" d="M575.84,323.24a2.79,2.79,0,1,1-2.79-2.7A2.65,2.65,0,0,1,575.84,323.24Zm-5.29,25.15V328.73h5v19.66Z"/><path class="cls-6" d="M595.34,347.79a14.36,14.36,0,0,1-5.57,1c-6.14,0-10.13-4-10.13-10.05,0-5.89,4-10.46,10.94-10.46a13.23,13.23,0,0,1,4.8.89l-.89,3.75a8.19,8.19,0,0,0-3.75-.77c-3.8,0-6.06,2.79-6,6.38,0,4,2.62,6.34,6,6.34a9.86,9.86,0,0,0,3.92-.77Z"/><path class="cls-6" d="M617.34,338.38c0,7.23-5.09,10.46-10.09,10.46-5.53,0-9.85-3.8-9.85-10.13s4.24-10.42,10.17-10.42S617.34,332.41,617.34,338.38Zm-14.82.2c0,3.8,1.9,6.66,4.89,6.66,2.83,0,4.8-2.74,4.8-6.74,0-3.07-1.37-6.62-4.76-6.62S602.53,335.31,602.53,338.58Z"/><path class="cls-6" d="M621.42,334.59c0-2.26-.08-4.16-.16-5.85h4.32l.24,2.95h.12a7.22,7.22,0,0,1,6.3-3.39c3.43,0,7,2.22,7,8.44v11.67h-5v-11.1c0-2.83-1-5-3.75-5a4.17,4.17,0,0,0-3.88,2.91,4.61,4.61,0,0,0-.24,1.57v11.59h-5Z"/><path class="cls-6" d="M662.64,319.73v23.13c0,2,.08,4.2.16,5.53h-4.4l-.24-3.11h-.08a7.06,7.06,0,0,1-6.38,3.55c-4.72,0-8.44-4-8.44-10.05,0-6.58,4.08-10.5,8.8-10.5,2.7,0,4.64,1.09,5.53,2.54h.08v-11.1Zm-5,17.2a7.54,7.54,0,0,0-.12-1.33,4.36,4.36,0,0,0-4.28-3.47c-3.19,0-5,2.83-5,6.46s1.78,6.26,4.92,6.26a4.38,4.38,0,0,0,4.28-3.51,5.55,5.55,0,0,0,.16-1.45Z"/><path class="cls-6" d="M685.57,342.5c0,2.34.08,4.28.16,5.89h-4.32l-.24-2.95H681a7.19,7.19,0,0,1-6.34,3.39c-3.55,0-6.82-2.14-6.82-8.56V328.73h5v10.7c0,3.27,1,5.37,3.67,5.37a4,4,0,0,0,3.8-2.66,3.58,3.58,0,0,0,.28-1.53V328.73h5Z"/><path class="cls-6" d="M705.39,347.79a14.36,14.36,0,0,1-5.57,1c-6.14,0-10.13-4-10.13-10.05,0-5.89,4-10.46,10.94-10.46a13.23,13.23,0,0,1,4.8.89l-.89,3.75a8.19,8.19,0,0,0-3.75-.77c-3.8,0-6.06,2.79-6,6.38,0,4,2.62,6.34,6,6.34a9.86,9.86,0,0,0,3.92-.77Z"/><path class="cls-6" d="M715.36,323.68v5h4.72v3.71h-4.72v8.68c0,2.42.65,3.63,2.54,3.63a6.48,6.48,0,0,0,1.94-.2l.08,3.76a10.9,10.9,0,0,1-3.59.52,5.68,5.68,0,0,1-4.28-1.62c-1.09-1.13-1.58-2.95-1.58-5.53v-9.25h-2.79v-3.71h2.79v-3.67Z"/><path class="cls-6" d="M742.29,338.38c0,7.23-5.09,10.46-10.09,10.46-5.53,0-9.85-3.8-9.85-10.13s4.24-10.42,10.17-10.42S742.29,332.41,742.29,338.38Zm-14.82.2c0,3.8,1.9,6.66,4.89,6.66,2.83,0,4.8-2.74,4.8-6.74,0-3.07-1.37-6.62-4.76-6.62S727.48,335.31,727.48,338.58Z"/><path class="cls-6" d="M746.37,335.07c0-2.66,0-4.6-.16-6.34h4.28l.2,3.71h.12a5.88,5.88,0,0,1,5.41-4.16,5.21,5.21,0,0,1,1.17.12v4.64a8,8,0,0,0-1.49-.12,4.37,4.37,0,0,0-4.44,3.76,8.7,8.7,0,0,0-.12,1.49v10.22h-5Z"/><path class="cls-6" d="M760.54,343.79a10.77,10.77,0,0,0,5,1.45c2.18,0,3.15-.93,3.15-2.22s-.81-2-3.23-2.87c-3.83-1.29-5.41-3.39-5.41-5.73,0-3.47,2.87-6.14,7.43-6.14a11.36,11.36,0,0,1,5.25,1.17l-1,3.47a8.69,8.69,0,0,0-4.16-1.13c-1.78,0-2.75.89-2.75,2.1s.93,1.82,3.43,2.75c3.59,1.25,5.21,3.07,5.25,6,0,3.59-2.79,6.18-8,6.18a12.7,12.7,0,0,1-6-1.37Z"/><path class="cls-7" d="M385.61,240.66h17.26l6.21,32.92,9.09-32.92h17.2l9.12,32.87,6.22-32.87h17.17l-13,58.8H437.09l-10.31-37-10.27,37H398.69Z"/><path class="cls-7" d="M517.89,282.21H485.16a10.56,10.56,0,0,0,2.12,5.86,7.74,7.74,0,0,0,6.18,2.77,9.28,9.28,0,0,0,4.57-1.2,10.75,10.75,0,0,0,2.85-2.69L517,288.43a23,23,0,0,1-8.9,9.2q-5.21,2.79-15,2.79-8.46,0-13.32-2.39a19.54,19.54,0,0,1-8-7.58,22.87,22.87,0,0,1-3.19-12.21q0-10,6.4-16.16t17.67-6.18q9.14,0,14.44,2.77a18.69,18.69,0,0,1,8.06,8q2.77,5.25,2.77,13.68Zm-16.6-7.82q-.48-4.73-2.55-6.78a8,8,0,0,0-11.65,1,11.31,11.31,0,0,0-1.89,5.73Z"/><path class="cls-7" d="M526.43,240.66h48.69v12.55H544.64v9.35h28.28v12H544.64v11.59H576v13.32H526.43Z"/><path class="cls-7" d="M584.71,256.86h15.2v6.94a22.6,22.6,0,0,1,6.9-6.08,18.16,18.16,0,0,1,8.5-1.83q6.78,0,10.61,4t3.83,12.45v27.07h-16.4V276q0-4-1.48-5.68a5.3,5.3,0,0,0-4.17-1.66,5.93,5.93,0,0,0-4.81,2.25Q601,273.19,601,279v20.46H584.71Z"/></g></g></svg>