<?xml version="1.0" encoding="utf-8"?>
<!-- Generator: Adobe Illustrator 21.0.0, SVG Export Plug-In . SVG Version: 6.00 Build 0)  -->
<svg version="1.1" id="logo-normal" xmlns="http://www.w3.org/2000/svg" xmlns:xlink="http://www.w3.org/1999/xlink" x="0px"
	 y="0px" viewBox="0 0 188.6 40" style="enable-background:new 0 0 188.6 40;" xml:space="preserve">
<style type="text/css">
	.st0{fill:url(#SVGID_1_);}
	.st1{fill:url(#SVGID_2_);}
	.st2{fill:url(#SVGID_3_);}
	.st3{fill:url(#SVGID_4_);}
	.st4{fill:#9A57A5;}
</style>
<title>logo-normal</title>
<linearGradient id="SVGID_1_" gradientUnits="userSpaceOnUse" x1="46.7507" y1="24.6392" x2="29.6701" y2="34.4996" gradientTransform="matrix(1 0 0 -1 0 42)">
	<stop  offset="0" style="stop-color:#8095C2"/>
	<stop  offset="0.14" style="stop-color:#778FBE"/>
	<stop  offset="1" style="stop-color:#446CA9"/>
</linearGradient>
<polygon class="st0" points="51,10 34,20 34,0 "/>
<linearGradient id="SVGID_2_" gradientUnits="userSpaceOnUse" x1="34" y1="17" x2="51" y2="17" gradientTransform="matrix(1 0 0 -1 0 42)">
	<stop  offset="0" style="stop-color:#873299"/>
	<stop  offset="1" style="stop-color:#AE71B8"/>
</linearGradient>
<polygon class="st1" points="34,20 34,40 51,30 51,10 "/>
<linearGradient id="SVGID_3_" gradientUnits="userSpaceOnUse" x1="0" y1="17" x2="17" y2="17" gradientTransform="matrix(1 0 0 -1 0 42)">
	<stop  offset="0" style="stop-color:#76C4D5"/>
	<stop  offset="1" style="stop-color:#A3D5E1"/>
</linearGradient>
<polygon class="st2" points="0,20 0,40 17,30 17,10 "/>
<linearGradient id="SVGID_4_" gradientUnits="userSpaceOnUse" x1="17" y1="17" x2="34" y2="17" gradientTransform="matrix(1 0 0 -1 0 42)">
	<stop  offset="0" style="stop-color:#CD94B4"/>
	<stop  offset="1" style="stop-color:#DDB4CA"/>
	<stop  offset="1" style="stop-color:#DDB4CA"/>
</linearGradient>
<polygon class="st3" points="34,20 34,40 17,30 17,10 "/>
<path class="st4" d="M66.5,12.3c1.2-0.1,2.4-0.2,3.4-0.3v-1.9l0,0V5.2h-2.3v5.1h-1.1V12.3z"/>
<path class="st4" d="M70.4,20.2c-0.9,1.3-2.4,2.2-4,2.4V24c3.3-0.4,5.6-1.7,6.8-3.9L70.4,20.2z"/>
<path class="st4" d="M85.8,22.5c-1.6-0.1-3.1-1-4-2.4H79c1.2,2.2,3.5,3.4,6.8,3.8V22.5z"/>
<rect x="74.8" y="6" class="st4" width="1.5" height="1.6"/>
<path class="st4" d="M76.5,9.3c-0.9,0.2-1.7,0.3-2.5,0.4V7.6l0,0V6l0,0V4.5h-2.3V10c-0.3,0-0.6,0-0.8,0.1v1.8c1.9-0.2,3.8-0.5,5.7-1
	L76.5,9.3z"/>
<path class="st4" d="M85.8,8.7h-1.9v0.4c0.1,0.8-0.3,1.2-1.2,1.1H81c-0.9,0.1-1.3-0.3-1.2-1.2V8.1l0,0V6.7l0,0V4.4h-2.6v4.8
	C77.1,11.1,78,12,80,11.9h3.1c1.9,0.1,2.9-0.8,2.8-2.7L85.8,8.7z"/>
<path class="st4" d="M80.7,8.1c2.4-0.3,4.1-1.3,5-3h-2.5c-0.6,0.8-1.5,1.3-2.5,1.4L80.7,8.1z"/>
<path class="st4" d="M77.7,17.5c-1.5,0-2.9,0.1-4.4,0.1c3.6-1,7-2.6,10.1-4.7h-4c-0.4,0.2-0.8,0.4-1.2,0.7L77.5,14h-0.6
	c-1.7,0.1-3.2,0.2-4.3,0.2c1.6-0.6,3.1-1.3,4.6-2.3h-3.6c-1.6,0.9-3.2,1.7-5,2.2v1.7c1.5,0,3.3-0.1,5.4-0.2c-2,0.8-4.1,1.5-6.3,2
	v1.8h4.6c1,0,1.9,0,2.8-0.1v2.4c0,0.7-0.4,1-1.1,1h-1v1.8H75c1.8,0,2.7-0.8,2.7-2.3L77.7,17.5z"/>
<path class="st4" d="M82.8,15.7h-2.3c0.4,0.5,0.8,1.1,1,1.7c-1,0.1-1.9,0.1-2.9,0.1v1.6c1.2-0.1,2.5-0.2,3.6-0.2
	c0.1,0.3,0.2,0.7,0.3,1H85C84.5,18.4,83.8,17,82.8,15.7z"/>
<path class="st4" d="M96.6,9.2c-0.4-1.5-1-3-1.7-4.4h-2.7c0.8,1.4,1.3,2.9,1.7,4.4H96.6z"/>
<rect x="106.8" y="6.1" class="st4" width="4" height="1.9"/>
<path class="st4" d="M92.3,10.2c0.7,1.4,1.3,2.9,1.7,4.5h2.7c-0.4-1.6-1-3.1-1.8-4.5H92.3z"/>
<polygon class="st4" points="111.6,21.5 105.9,21.5 105.9,8.1 105.9,8.1 105.9,6.1 98.2,6.1 98.2,8.1 103,8.1 103,21.5 97.3,21.5 
	97.3,23.2 111.6,23.2 "/>
<path class="st4" d="M91.8,24.2h2.9c1.2-2.7,1.8-5.6,2-8.5h-2.3C94.1,18.7,93.2,21.5,91.8,24.2z"/>
<path class="st4" d="M188.6,12.8c-1.5-0.5-3-1.1-4.5-1.8v1.9h-11.4V11c-1.4,0.7-2.8,1.3-4.3,1.8V11c3.5-1.3,6.5-3.7,8.6-6.8h3
	c2,3.1,5.1,5.5,8.6,6.8V12.8z M169,17.2v-1.9h19v1.9h-10.5c-0.9,1.7-2.2,3.2-3.7,4.5c3.8,0,6.9-0.1,9.3-0.4
	c-0.3-0.9-0.7-1.8-1.2-2.5h2.4c1,1.7,1.8,3.5,2.3,5.5H184c0-0.4-0.2-0.8-0.3-1.2c-3.6,0.4-7.2,0.6-10.9,0.6h-1.9v-1.9
	c1.4-1.3,2.5-2.8,3.4-4.5H169z M178.5,6.9c-1.6,1.7-3.5,3.1-5.6,4.1h11.2C182,10,180.1,8.6,178.5,6.9L178.5,6.9z"/>
<path class="st4" d="M137.1,14.4h-3.4v-7h2.9V5.7h-2.9V4.4H131v1.3h-6.6v1.7h6.6v1.4h-6.6v1.4h6.6v1.4h-6.6V13h6.6v1.4h-7.4v-10
	h-2.8v1.3h-2.7v1.7h2.8v7h-3.4V16h4.7c-1.2,1.6-2.9,2.7-4.7,3.3V21c1.6-0.4,3.1-1,4.5-1.9v1.1h4v2h-7.1v1.5h17v-1.5h-7.2v-2l0,0
	v-1.7l0,0V17H126v1.6h-3.2c1-0.7,1.8-1.6,2.5-2.5h4.1c0.7,1,1.5,1.9,2.5,2.5h-2.4v1.7h3.2v-1.1c1.4,0.8,2.8,1.5,4.4,1.9v-1.6
	c-1.9-0.6-3.5-1.8-4.7-3.4h4.7L137.1,14.4z"/>
<path class="st4" d="M158.8,21.2c0.6-1.1,0.9-2.3,1-3.5h-2.5c-0.2,1.2-0.5,2.4-0.9,3.5H158.8z"/>
<rect x="155.2" y="14.9" class="st4" width="5.9" height="1.9"/>
<path class="st4" d="M162.9,10.8c-3.5-1.2-6.5-3.5-8.5-6.6h-2.9c-2,3.1-5,5.4-8.5,6.6v1.9c1.3-0.4,2.6-0.8,3.9-1.4v1.4h4.6v2.3h-6.8
	v1.9h6.8v5.3h-8v1.8h19v-1.8h-8.1v-9.5h4.7v-1.4c1.2,0.6,2.5,1,3.8,1.4L162.9,10.8z M147.9,10.7c1.9-1,3.5-2.2,5-3.7
	c1.5,1.5,3.1,2.7,5,3.7H147.9z"/>
<path class="st4" d="M148.5,17.7H146c0.1,1.2,0.4,2.4,1,3.5h2.3C148.8,20.1,148.6,18.9,148.5,17.7z"/>
<path class="st4" d="M66.8,35l3.1-4h-3v-0.7h3.9V31l-3.1,4h3.1v0.7h-4L66.8,35z"/>
<path class="st4" d="M74,30.3h0.7v5.4H74V30.3z"/>
<path class="st4" d="M80.2,30.3h0.7v3.9c0,0.3,0,0.6-0.2,0.8c-0.1,0.2-0.2,0.4-0.4,0.5c-0.2,0.1-0.3,0.2-0.5,0.3
	c-0.2,0-0.3,0.1-0.5,0.1c-0.4,0-0.7-0.1-1-0.3c-0.3-0.2-0.5-0.5-0.5-0.9l0.7-0.2c0,0.2,0.1,0.4,0.3,0.5c0.1,0.1,0.3,0.2,0.5,0.2
	c0.2,0,0.3,0,0.4-0.1c0.1-0.1,0.2-0.2,0.3-0.3c0.1-0.1,0.1-0.3,0.1-0.4c0-0.1,0-0.3,0-0.5L80.2,30.3z"/>
<path class="st4" d="M84.4,30.3h0.7v5.4h-0.7V30.3z"/>
<path class="st4" d="M90.5,30.3h0.7l2.3,5.4h-0.9l-0.5-1.3h-2.6L89,35.7h-0.9L90.5,30.3z M91.8,33.7l-1-2.5l0,0l-1,2.5H91.8z"/>
<path class="st4" d="M96.5,30.3h1l3,4.4l0,0v-4.4h0.7v5.4h-0.9l-3-4.4l0,0v4.4h-0.7L96.5,30.3z"/>
<path class="st4" d="M109.5,32.7v2.7c-0.1,0.1-0.3,0.2-0.4,0.2c-0.2,0.1-0.3,0.1-0.5,0.2c-0.2,0-0.4,0.1-0.6,0.1h-0.5
	c-0.4,0-0.8-0.1-1.2-0.2c-0.7-0.3-1.2-0.8-1.5-1.5c-0.1-0.3-0.2-0.7-0.2-1.1c0-0.4,0.1-0.8,0.2-1.1c0.1-0.3,0.3-0.6,0.6-0.9
	c0.3-0.3,0.6-0.5,0.9-0.6c0.4-0.1,0.7-0.2,1.1-0.2c0.4,0,0.8,0.1,1.2,0.2c0.3,0.1,0.6,0.3,0.8,0.5l-0.5,0.6
	c-0.2-0.2-0.4-0.4-0.7-0.5c-0.3-0.1-0.5-0.1-0.8-0.1c-0.6,0-1.1,0.2-1.5,0.6c-0.2,0.2-0.3,0.4-0.4,0.7c-0.1,0.3-0.2,0.6-0.2,0.8
	c0,0.3,0.1,0.6,0.2,0.8c0.1,0.3,0.3,0.5,0.4,0.7c0.2,0.2,0.4,0.3,0.7,0.5c0.3,0.1,0.5,0.2,0.8,0.2c0.2,0,0.5,0,0.7-0.1
	c0.2,0,0.4-0.1,0.6-0.2v-1.5h-1.2v-0.7L109.5,32.7z"/>
<path class="st4" d="M117.5,30.3h3.4V31h-2.7v1.7h2.5v0.7h-2.5v2.3h-0.7V30.3z"/>
<path class="st4" d="M126.7,35.8c-0.4,0-0.8-0.1-1.1-0.2c-0.3-0.1-0.6-0.3-0.9-0.6c-0.3-0.3-0.4-0.6-0.6-0.9c-0.3-0.7-0.3-1.5,0-2.3
	c0.1-0.3,0.3-0.6,0.6-0.9c0.3-0.3,0.6-0.5,0.9-0.6c0.7-0.3,1.5-0.3,2.3,0c0.3,0.1,0.6,0.3,0.9,0.6c0.2,0.3,0.4,0.6,0.6,0.9
	c0.3,0.7,0.3,1.5,0,2.3c-0.1,0.3-0.3,0.6-0.6,0.9c-0.3,0.3-0.6,0.5-0.9,0.6C127.5,35.7,127.1,35.8,126.7,35.8z M126.7,35.1
	c0.6,0,1.1-0.2,1.5-0.6c0.2-0.2,0.3-0.4,0.4-0.7c0.2-0.5,0.2-1.1,0-1.7c-0.1-0.3-0.2-0.5-0.4-0.7c-0.7-0.8-2-0.9-2.8-0.2
	c-0.1,0.1-0.1,0.1-0.2,0.2c-0.2,0.2-0.3,0.4-0.4,0.7c-0.2,0.5-0.2,1.1,0,1.7c0.1,0.3,0.2,0.5,0.4,0.7
	C125.6,34.9,126.1,35.1,126.7,35.1L126.7,35.1z"/>
<path class="st4" d="M133.5,30.3v3.3c0,0.2,0,0.4,0.1,0.5c0,0.2,0.1,0.3,0.2,0.5c0.1,0.2,0.3,0.3,0.4,0.4c0.4,0.2,0.9,0.2,1.3,0
	c0.2-0.1,0.3-0.2,0.4-0.4c0.1-0.2,0.2-0.3,0.2-0.5c0-0.2,0.1-0.3,0.1-0.5v-3.3h0.7v3.4c0,0.3-0.1,0.6-0.2,0.9
	c-0.1,0.3-0.2,0.5-0.4,0.7c-0.2,0.2-0.4,0.3-0.7,0.4c-0.5,0.2-1.1,0.2-1.6,0c-0.2-0.1-0.5-0.3-0.7-0.4c-0.2-0.2-0.3-0.4-0.4-0.7
	c-0.1-0.3-0.2-0.6-0.2-0.9v-3.4H133.5z"/>
<path class="st4" d="M140.5,30.3h1l3,4.4l0,0v-4.4h0.7v5.4h-0.9l-3-4.4l0,0v4.4h-0.7L140.5,30.3z"/>
<path class="st4" d="M148.8,30.3h1.9c0.3,0,0.7,0,1,0.1c0.3,0.1,0.5,0.2,0.8,0.4c0.2,0.1,0.4,0.3,0.5,0.5c0.1,0.2,0.2,0.4,0.3,0.6
	c0.1,0.2,0.1,0.4,0.2,0.6c0,0.2,0,0.4,0.1,0.5c0,0.3-0.1,0.7-0.2,1c-0.1,0.3-0.3,0.6-0.6,0.9c-0.3,0.3-0.6,0.5-0.9,0.6
	c-0.4,0.2-0.8,0.2-1.3,0.2h-1.8V30.3z M149.5,35h0.9c0.3,0,0.6,0,0.9-0.1c0.3-0.1,0.5-0.2,0.7-0.4c0.2-0.2,0.4-0.4,0.5-0.6
	c0.1-0.3,0.2-0.6,0.2-0.9c0-0.2,0-0.4-0.1-0.6c-0.1-0.2-0.2-0.5-0.3-0.7c-0.2-0.2-0.4-0.4-0.6-0.5c-0.3-0.1-0.7-0.2-1.1-0.2h-1.1V35
	z"/>
<path class="st4" d="M158.5,30.3h0.7l2.3,5.4h-0.9l-0.5-1.3h-2.6l-0.5,1.3h-0.9L158.5,30.3z M159.8,33.7l-1-2.5l0,0l-1,2.5H159.8z"
	/>
<path class="st4" d="M164.9,31h-1.7v-0.7h4.2V31h-1.7v4.7h-0.7L164.9,31z"/>
<path class="st4" d="M170.5,30.3h0.7v5.4h-0.7V30.3z"/>
<path class="st4" d="M177.4,35.8c-0.4,0-0.8-0.1-1.1-0.2c-0.3-0.1-0.6-0.3-0.9-0.6c-0.3-0.3-0.4-0.6-0.6-0.9c-0.3-0.7-0.3-1.5,0-2.3
	c0.1-0.3,0.3-0.6,0.6-0.9c0.3-0.3,0.6-0.5,0.9-0.6c0.7-0.3,1.5-0.3,2.3,0c0.3,0.1,0.6,0.3,0.9,0.6c0.2,0.3,0.4,0.6,0.6,0.9
	c0.3,0.7,0.3,1.5,0,2.3c-0.1,0.3-0.3,0.6-0.6,0.9c-0.3,0.3-0.6,0.5-0.9,0.6C178.1,35.7,177.8,35.8,177.4,35.8z M177.4,35.1
	c0.6,0,1.1-0.2,1.5-0.6c0.2-0.2,0.3-0.4,0.4-0.7c0.2-0.5,0.2-1.1,0-1.7c-0.1-0.3-0.2-0.5-0.4-0.7c-0.7-0.8-2-0.9-2.8-0.2
	c-0.1,0.1-0.1,0.1-0.2,0.2c-0.2,0.2-0.3,0.4-0.4,0.7c-0.2,0.5-0.2,1.1,0,1.7c0.1,0.3,0.2,0.5,0.4,0.7
	C176.2,34.9,176.8,35.1,177.4,35.1L177.4,35.1z"/>
<path class="st4" d="M183.5,30.3h1l3,4.4l0,0v-4.4h0.7v5.4h-0.9l-3-4.4l0,0v4.4h-0.7L183.5,30.3z"/>
</svg>
