<svg xmlns="http://www.w3.org/2000/svg" viewBox="0 0 539.94 216"><defs><style>.cls-1{fill:#00608c;}.cls-2{fill:#fbba33;}</style></defs><title>Asset 1</title><g id="Layer_2" data-name="Layer 2"><g id="Layer_1-2" data-name="Layer 1"><rect class="cls-1" x="319.94" y="9" width="126" height="18"/><path class="cls-1" d="M427.94,117h-108v99h126V117Zm-90,18h36v22.5h-36Zm0,40.5h36V198h-36Zm90,22.5h-36V175.5h36Zm0-40.5h-36V135h36Z"/><path class="cls-1" d="M427.94,45h-108V99h126V45Zm0,36h-90V63h90Z"/><polygon class="cls-1" points="117 63 117 36 198 36 198 18 117 18 117 0 99 0 99 18 18 18 18 36 99 36 99 63 0 63 0 81 216 81 216 63 117 63"/><polygon class="cls-1" points="216 162 117 162 117 135 198 135 198 117 18 117 18 135 99 135 99 162 0 162 0 180 99 180 99 216 117 216 117 180 216 180 216 162"/><rect class="cls-1" x="48.73" y="90" width="18" height="18" transform="translate(86.91 -11.82) rotate(45)"/><rect class="cls-1" x="149.27" y="90" width="18" height="18" transform="translate(116.36 -82.92) rotate(45)"/><rect class="cls-1" x="291.14" y="126" width="18" height="18" transform="translate(183.37 -172.69) rotate(45)"/><rect class="cls-1" x="259.57" y="12.73" width="18" height="18" transform="translate(94.03 -183.54) rotate(45)"/><polygon class="cls-1" points="263.05 216 263.05 124.51 244.49 148.34 229.94 137.05 287.38 63.06 233.46 63.06 233.46 45 307.2 45 307.2 67.57 281.11 101.19 281.11 216 263.05 216"/><path class="cls-2" d="M503.94,9a27,27,0,1,0,27,27A27,27,0,0,0,503.94,9Zm0,36a9,9,0,1,1,9-9A9,9,0,0,1,503.94,45Z"/><rect class="cls-1" x="476.94" y="81" width="54" height="18"/><path class="cls-1" d="M512.94,117h-36v18h36a9,9,0,0,1,0,18h-36v18h36a27,27,0,0,0,0-54Z"/></g></g></svg>